<?xml version="1.0" encoding="UTF-8" standalone="no"?>
<svg
   version="1.1"
   viewBox="0 0 700 700"
   id="svg2"
   sodipodi:docname="logo.svg"
   inkscape:version="1.4 (86a8ad7, 2024-10-11)"
   xmlns:inkscape="http://www.inkscape.org/namespaces/inkscape"
   xmlns:sodipodi="http://sodipodi.sourceforge.net/DTD/sodipodi-0.dtd"
   xmlns="http://www.w3.org/2000/svg"
   xmlns:svg="http://www.w3.org/2000/svg">
  <defs
     id="defs2" />
  <sodipodi:namedview
     id="namedview2"
     pagecolor="#ffffff"
     bordercolor="#000000"
     borderopacity="0.25"
     inkscape:showpageshadow="2"
     inkscape:pageopacity="0.0"
     inkscape:pagecheckerboard="0"
     inkscape:deskcolor="#d1d1d1"
     inkscape:zoom="1.6185714"
     inkscape:cx="350"
     inkscape:cy="207.28155"
     inkscape:window-width="2560"
     inkscape:window-height="1351"
     inkscape:window-x="-9"
     inkscape:window-y="-9"
     inkscape:window-maximized="1"
     inkscape:current-layer="svg2" />
  <linearGradient
     id="Gradient2"
     x1="195.21544"
     x2="195.21544"
     y1="185.88694"
     y2="574.97958"
     gradientTransform="matrix(1.7392374,0,0,1.7979794,-329.80726,-333.65865)"
     gradientUnits="userSpaceOnUse">
    <stop
       offset="0%"
       stop-color="#90CAF9"
       id="stop1" />
    <stop
       offset="50%"
       stop-color="#CE93D8"
       id="stop2" />
    <!-- <stop offset="100%" stop-color="#CE93D8" /> -->
  </linearGradient>
  <path
     stroke="none"
     fill="url(#Gradient2)"
     fill-rule="evenodd"
     d="m 345.70795,700.00342 c -19.92946,0.26526 -38.63875,0.14147 -41.55656,-0.28293 -2.91779,-0.42441 -14.02313,-2.38729 -24.66867,-4.36786 -10.66324,-1.98057 -26.96756,-6.01244 -36.25149,-8.94792 -9.28391,-2.9355 -26.43705,-9.9559 -38.10824,-15.59699 -11.67122,-5.65875 -28.94813,-15.47318 -38.40888,-21.82161 -9.46075,-6.33074 -24.88089,-17.70133 -34.25322,-25.25224 -9.39003,-7.55092 -23.78449,-21.37952 -31.98972,-30.73418 C 92.265961,583.64504 80.453289,568.86152 74.228645,560.16116 68.004,551.46081 58.171901,535.96993 52.407024,525.76648 46.624476,515.56301 38.719887,499.64774 34.829485,490.39918 30.956766,481.15064 25.775458,467.21592 23.317432,459.39975 20.877089,451.58359 17.658666,439.25808 16.17324,431.9901 c -1.485426,-7.26797 -3.536729,-20.93743 -4.580064,-30.3805 -1.025653,-9.44306 -1.8744673,-25.99496 -1.8744673,-36.76429 0,-10.76935 0.8311313,-27.32123 1.8567823,-36.76429 1.025653,-9.44308 3.819667,-26.72 6.206961,-38.3912 2.404975,-11.67121 5.853285,-25.99496 7.692384,-31.83057 1.839101,-5.83561 6.578317,-19.18675 10.52177,-29.67314 3.943452,-10.46873 10.645553,-25.58824 14.907311,-33.59894 4.244076,-7.99299 11.211437,-20.51302 15.47319,-27.79869 4.279442,-7.28566 12.520019,-19.62885 18.320255,-27.40964 5.817916,-7.78081 17.559868,-22.10456 26.083378,-31.83056 8.52352,-9.726001 21.11427,-22.44055 27.97552,-28.240786 6.84357,-5.817916 21.18501,-16.67567 31.84825,-24.13817 10.68092,-7.462502 27.17976,-17.54218 36.69357,-22.405183 9.4961,-4.880685 24.33269,-11.335215 32.94462,-14.35912 8.61194,-3.023903 23.32473,-7.444814 32.71474,-9.8144221 9.37234,-2.3696083 23.78451,-5.1459399 32.02508,-6.1715928 8.24058,-1.0256508 24.31502,-1.85678237 35.72097,-1.85678237 11.40595,0 29.85,1.20248807 40.97299,2.65254727 11.1407,1.4677429 29.28413,4.9337367 40.3364,7.727753 11.03461,2.794016 29.23107,8.806454 40.40714,13.38652 11.17606,4.562378 29.40789,13.545671 40.49554,19.964833 11.10532,6.419165 27.81638,17.383019 37.13566,24.332702 9.33696,6.96735 23.67839,18.974541 31.86591,26.66693 8.18754,7.710071 20.81366,20.778271 28.06395,29.054231 7.268,8.27595 19.48739,24.52721 27.17977,36.12768 7.6747,11.61815 18.67393,30.7165 24.42111,42.44074 5.72951,11.74195 13.20968,29.39023 16.60494,39.24001 3.37759,9.83211 8.20522,27.0383 10.71629,38.24973 2.51108,11.19375 5.42888,30.7165 6.4899,43.37798 1.4147,16.74642 1.39702,29.86767 -0.0354,48.04646 -1.07871,13.7579 -3.5721,33.38674 -5.55268,43.62556 -1.98056,10.23883 -6.4722,27.51574 -9.99124,38.3735 -3.53673,10.87546 -12.46699,31.70679 -19.87642,46.31347 -7.39178,14.589 -18.99225,34.4831 -25.74739,44.20911 -6.77284,9.70833 -19.2398,25.69433 -27.69259,35.50877 -8.47047,9.81441 -21.6094,23.37778 -29.19569,30.15061 -7.60398,6.75514 -18.99224,16.32201 -25.3053,21.27342 -6.31306,4.93375 -18.44404,13.49262 -26.93219,19.00991 -8.48816,5.51731 -24.40344,14.34145 -35.36729,19.61118 -10.96386,5.26972 -28.52372,12.39623 -39.01012,15.82686 -10.50409,3.43061 -28.0109,7.93995 -38.90401,10.00893 -15.33173,2.91781 -28.04627,3.89041 -56.07486,4.26176 z m -37.13564,-21.00818 c 4.42091,-0.26525 4.42091,-0.26525 5.53499,-24.13816 0.61892,-13.12127 1.22016,-41.98097 1.32626,-64.1032 0.17682,-32.13119 -0.24756,-40.2303 -2.10436,-40.2303 -1.27322,0 -4.04955,2.31656 -6.13622,5.16362 -2.10435,2.84707 -11.60048,11.81267 -21.11427,19.94715 -9.51379,8.13448 -23.66071,19.89411 -31.44152,26.13642 -7.7808,6.24233 -21.46794,17.63061 -30.41587,25.32298 -8.94793,7.69239 -17.54216,15.91528 -19.09833,18.2849 -2.79402,4.26175 -2.75865,4.33249 6.54295,8.41742 5.16361,2.26349 15.3494,6.1539 22.63506,8.64729 7.28566,2.51108 21.23806,6.59601 30.99942,9.10708 9.76138,2.51108 22.4936,5.26971 28.29383,6.13622 5.80024,0.8665 12.53772,1.45006 14.97806,1.30858 z m -73.49323,-86.57911 c 1.25553,-0.42441 2.17509,-22.56433 2.75864,-67.05638 0.83113,-62.01654 1.11408,-66.66734 4.24408,-70.13333 1.8391,-2.03363 9.39001,-7.0204 16.79946,-11.06997 7.39177,-4.06724 23.67841,-13.59872 36.18074,-21.2027 12.50234,-7.60395 24.03207,-14.0408 25.64129,-14.30606 2.58182,-0.42441 2.91779,2.45804 2.98854,26.04802 0.0531,14.58901 0.24756,28.71823 0.44209,31.38846 0.19451,2.67024 0.9549,4.863 1.67993,4.863 0.72504,0 8.41743,-5.76487 17.1001,-12.82063 8.68267,-7.05578 16.10979,-13.81093 16.49883,-15.0311 0.45977,-1.36164 -0.90187,-2.21046 -3.50136,-2.21046 -2.31656,0 -5.65876,-1.06101 -7.42712,-2.33424 -2.58182,-1.89216 -3.50136,-6.27769 -4.7569,-22.54664 -0.86652,-11.12302 -2.03363,-81.61003 -2.5995,-156.64174 -0.74272,-97.84361 -0.47745,-137.47265 0.91954,-140.08981 1.0787,-2.01595 11.47669,-8.41743 23.36009,-14.35914 16.62264,-8.311316 21.94541,-10.256519 23.81987,-8.700356 1.94521,1.626894 2.5111,14.712786 2.88244,67.675316 0.45978,65.67704 0.45978,65.67704 16.4458,65.05812 13.20968,-0.53051 16.41041,-0.12375 18.40866,2.28119 2.01594,2.42266 2.24583,20.83133 1.34397,109.97461 -0.84882,83.89119 -1.57386,107.67569 -3.37758,109.88616 -1.27323,1.55616 -18.42635,10.66323 -38.14362,20.23008 -19.69958,9.58454 -38.14362,17.87817 -40.95532,18.44405 -3.21842,0.6366 -5.49962,2.42265 -6.13623,4.80994 -0.54819,2.08668 -1.00797,21.68015 -1.00797,43.5725 0,21.89235 0.68967,40.88459 1.53849,42.22854 1.30858,2.05131 4.40322,1.9629 19.87641,-0.60123 10.07967,-1.67995 26.98523,-5.83561 37.57774,-9.23087 10.5925,-3.41294 26.89682,-10.13272 36.25147,-14.925 9.33696,-4.79226 24.15587,-13.98776 32.90927,-20.45998 8.75339,-6.47221 22.81189,-18.83308 31.247,-27.49805 8.45278,-8.64731 19.82336,-22.3875 25.28761,-30.52197 5.46424,-8.13448 13.70483,-22.21068 18.30257,-31.2647 4.59775,-9.0717 11.31752,-25.23455 14.94268,-35.93316 3.62516,-10.6986 8.18754,-28.87739 10.13273,-40.40714 2.36961,-14.00543 3.53674,-29.10727 3.53674,-45.55306 0,-13.5103 -1.22018,-32.73241 -2.7056,-42.70601 -1.46776,-9.95588 -4.72153,-25.65896 -7.21493,-34.9075 -2.4934,-9.24855 -7.32104,-24.35039 -10.73398,-33.59893 -3.41295,-9.24855 -11.45899,-27.49806 -17.87816,-40.58395 -10.9108,-22.22835 -12.89137,-25.05773 -30.34515,-43.18348 -10.25651,-10.66323 -26.96754,-25.57054 -37.11796,-33.139143 -10.16809,-7.58629 -25.67664,-17.32998 -34.4831,-21.662461 -8.80646,-4.332493 -22.47592,-9.902839 -30.36282,-12.360881 -7.88692,-2.458019 -22.75886,-5.411187 -33.01536,-6.578312 -14.28839,-1.609204 -23.28937,-1.609204 -38.26741,-0.05307 -10.76935,1.131745 -26.54315,4.031862 -35.06668,6.472203 -8.50582,2.422671 -27.40965,10.327259 -41.99865,17.559857 -14.58901,7.232611 -32.89158,17.948897 -40.67238,23.802187 -7.78081,5.87097 -21.32649,17.32997 -30.07989,25.44676 -8.77108,8.13448 -22.74117,23.85524 -31.05248,34.9429 -8.31131,11.08763 -18.58549,25.7297 -22.82957,32.52022 -4.24408,6.80819 -12.34319,21.92772 -18.00197,33.59891 -5.65875,11.67122 -12.290114,27.65722 -14.748156,35.52644 -2.440328,7.85155 -5.977065,21.37954 -7.869217,30.0622 -1.874462,8.68268 -4.367862,24.52721 -5.517286,35.22582 -1.184817,11.01692 -1.662264,28.66519 -1.078707,40.67239 0.548188,11.67121 2.670219,29.79694 4.721531,40.28333 2.033611,10.48642 5.340458,24.42114 7.33872,30.94638 1.998242,6.54296 7.091141,19.13372 11.335215,27.99322 4.22638,8.8595 12.67915,23.57231 18.78002,32.71474 6.24232,9.33697 18.85076,24.40343 28.82434,34.43007 9.76137,9.81442 23.71376,22.03382 30.99943,27.16207 7.28567,5.14594 21.9631,13.65177 32.60864,18.90382 10.64555,5.26971 20.19473,9.2839 21.22038,8.94792 z M 530.6612,497.844 c 1.48543,-0.83114 7.42712,-7.81617 13.20968,-15.52624 5.78255,-7.71007 15.2433,-23.5723 21.00818,-35.2435 5.78254,-11.67122 12.89137,-29.58474 15.80918,-39.78821 2.91779,-10.20345 6.56062,-25.72971 8.09911,-34.48311 1.55615,-8.7534 3.28915,-26.2602 3.87271,-38.904 0.63661,-13.56336 0.21219,-30.8403 -1.00797,-42.15783 -1.14943,-10.53944 -4.06723,-26.77302 -6.4899,-36.05695 -2.40497,-9.2839 -6.98504,-23.83755 -10.16809,-32.3257 -3.20075,-8.48814 -9.28392,-21.50331 -13.52799,-28.93044 -4.26177,-7.42713 -9.90284,-16.09211 -12.5377,-19.2398 -2.65255,-3.16538 -5.30509,-5.26974 -5.90635,-4.68618 -0.58356,0.56589 1.82143,7.33872 5.34047,15.0311 3.53672,7.67472 9.58453,22.31677 13.43956,32.50255 3.85505,10.18577 8.48817,25.71202 10.30957,34.48311 1.82142,8.77108 4.13798,24.19122 5.16363,34.2709 1.02564,10.06199 1.85679,25.58823 1.85679,34.48312 0,8.89486 -0.83115,24.91624 -1.83911,35.61484 -1.00797,10.69861 -3.43063,27.40964 -5.39351,37.13565 -1.9629,9.72601 -7.19724,26.84379 -11.61817,38.01985 -4.4209,11.17607 -13.5103,30.91102 -20.1947,43.82007 -6.66674,12.92674 -10.92849,22.8119 -9.42539,21.98077 z M 49.029452,478.02065 c 1.025651,0 1.237854,-1.99827 0.512826,-4.86302 -0.689663,-2.67023 -2.758649,-12.60843 -4.597748,-22.06918 -1.8391,-9.46076 -4.191025,-28.36458 -5.216675,-41.99866 -1.30859,-17.31228 -1.30859,-32.20192 -0.01769,-49.37274 1.007969,-13.5103 3.094638,-31.22931 4.615433,-39.3461 1.520793,-8.11681 4.70385,-22.52897 7.091141,-32.00741 2.387289,-9.47843 7.00272,-24.59794 10.256517,-33.59892 3.271467,-9.00098 9.99126,-24.84553 14.96037,-35.20814 4.9691,-10.3803 15.331706,-28.27615 23.024084,-39.78821 7.71007,-11.51203 21.62709,-29.79693 30.94639,-40.637 9.31928,-10.82239 21.94539,-24.26196 28.04626,-29.85 6.10086,-5.60571 18.8154,-15.950654 28.24079,-23.024104 9.42538,-7.073461 24.54489,-17.436068 33.5989,-23.059476 9.05405,-5.605706 25.21688,-14.341432 35.91549,-19.398954 10.69862,-5.057522 25.81813,-11.264482 33.59893,-13.810927 7.78081,-2.546444 19.32822,-5.800236 25.64127,-7.250294 11.47669,-2.617179 11.44133,-2.617179 -17.68363,-1.980569 -24.651,0.53051 -31.91899,1.361642 -46.86166,5.322777 -9.726,2.581812 -21.85699,6.242327 -26.94988,8.116794 -5.09288,1.89215 -14.64206,6.153908 -21.22037,9.478433 -6.57832,3.324525 -19.452,10.963855 -28.62982,16.99398 -9.16013,6.030126 -24.29733,17.577549 -33.61661,25.658977 -9.33696,8.081416 -21.91004,20.247773 -27.92248,27.020593 -6.03012,6.77284 -16.109797,19.1514 -22.405171,27.48039 -6.277695,8.34669 -15.314037,21.76856 -20.088629,29.85 -4.75689,8.06374 -11.512041,20.65449 -14.995717,27.94016 -3.501366,7.28566 -8.116793,17.24155 -10.29188,22.10455 -2.157405,4.86301 -6.260011,15.54392 -9.089395,23.74914 -2.847066,8.18754 -7.091141,22.918 -9.443065,32.71474 -2.334241,9.79673 -5.517297,26.1718 -7.055774,36.37526 -1.715315,11.29985 -2.8117,30.32745 -2.829383,48.63002 -0.01768,18.76235 0.990283,36.4283 2.705598,46.98543 1.503109,9.31929 3.978819,22.31678 5.499612,28.87741 1.538479,6.57831 5.252042,17.5068 8.293631,24.29732 3.872717,8.66499 5.977072,11.63584 7.073457,10.00894 1.220172,-1.76836 2.210455,-1.39701 4.36786,1.67995 1.520794,2.19278 3.572095,3.97884 4.527014,3.97884 z M 183.10684,391.33541 c -1.50309,0 -3.62515,-0.60124 -4.68616,-1.32628 -1.07871,-0.70735 -2.86475,-3.02391 -3.97881,-5.14594 -1.45007,-2.74096 -1.98058,-24.81015 -1.87446,-76.03966 0.0883,-39.69979 0.67197,-76.09273 1.32626,-80.84965 1.16712,-8.66497 1.16712,-8.66497 26.8084,-24.54488 14.11156,-8.73572 32.00739,-19.87641 39.78821,-24.79247 7.7808,-4.89836 18.49709,-11.56512 23.80218,-14.81889 7.63933,-4.66848 10.06199,-5.44656 11.67119,-3.67821 1.50312,1.64457 1.7507,24.95162 0.95493,89.28472 -1.06102,87.03892 -1.06102,87.03892 -5.48192,91.33604 -2.44035,2.36959 -22.68813,14.73047 -45.00489,27.4627 -22.31675,12.73222 -41.80414,23.13021 -43.32493,23.11252 z"
     id="path2"
     style="display:inline;fill:url(#Gradient2);stroke-width:1.76836" />
</svg>
